<?xml version="1.0" encoding="UTF-8" standalone="no"?>
<!DOCTYPE svg PUBLIC "-//W3C//DTD SVG 1.1//EN"
 "http://www.w3.org/Graphics/SVG/1.1/DTD/svg11.dtd">
<!-- Generated by graphviz version 2.36.0 (20140111.2315)
 -->
<!-- Title: Tree Pages: 1 -->
<svg width="1038pt" height="436pt"
 viewBox="0.00 0.00 1038.00 436.00" xmlns="http://www.w3.org/2000/svg" xmlns:xlink="http://www.w3.org/1999/xlink">
<g id="graph0" class="graph" transform="scale(1 1) rotate(0) translate(4 432)">
<title>Tree</title>
<polygon fill="white" stroke="none" points="-4,4 -4,-432 1034,-432 1034,4 -4,4"/>
<!-- 0 -->
<g id="node1" class="node"><title>0</title>
<path fill="#e58139" fill-opacity="0.376471" stroke="black" d="M562.25,-427.5C562.25,-427.5 461.75,-427.5 461.75,-427.5 455.75,-427.5 449.75,-421.5 449.75,-415.5 449.75,-415.5 449.75,-356.5 449.75,-356.5 449.75,-350.5 455.75,-344.5 461.75,-344.5 461.75,-344.5 562.25,-344.5 562.25,-344.5 568.25,-344.5 574.25,-350.5 574.25,-356.5 574.25,-356.5 574.25,-415.5 574.25,-415.5 574.25,-421.5 568.25,-427.5 562.25,-427.5"/>
<text text-anchor="start" x="483" y="-412.3" font-family="Helvetica,sans-Serif" font-size="14.00">Sex ≤ 0.5</text>
<text text-anchor="start" x="476.5" y="-397.3" font-family="Helvetica,sans-Serif" font-size="14.00">gini = 0.473</text>
<text text-anchor="start" x="467" y="-382.3" font-family="Helvetica,sans-Serif" font-size="14.00">samples = 891</text>
<text text-anchor="start" x="457.5" y="-367.3" font-family="Helvetica,sans-Serif" font-size="14.00">value = [549, 342]</text>
<text text-anchor="start" x="462" y="-352.3" font-family="Helvetica,sans-Serif" font-size="14.00">class = Survived</text>
</g>
<!-- 1 -->
<g id="node2" class="node"><title>1</title>
<path fill="#e58139" fill-opacity="0.768627" stroke="black" d="M427.25,-307.5C427.25,-307.5 326.75,-307.5 326.75,-307.5 320.75,-307.5 314.75,-301.5 314.75,-295.5 314.75,-295.5 314.75,-236.5 314.75,-236.5 314.75,-230.5 320.75,-224.5 326.75,-224.5 326.75,-224.5 427.25,-224.5 427.25,-224.5 433.25,-224.5 439.25,-230.5 439.25,-236.5 439.25,-236.5 439.25,-295.5 439.25,-295.5 439.25,-301.5 433.25,-307.5 427.25,-307.5"/>
<text text-anchor="start" x="347.5" y="-292.3" font-family="Helvetica,sans-Serif" font-size="14.00">Age ≤ 6.5</text>
<text text-anchor="start" x="337.5" y="-277.3" font-family="Helvetica,sans-Serif" font-size="14.00">gini = 0.3064</text>
<text text-anchor="start" x="332" y="-262.3" font-family="Helvetica,sans-Serif" font-size="14.00">samples = 577</text>
<text text-anchor="start" x="322.5" y="-247.3" font-family="Helvetica,sans-Serif" font-size="14.00">value = [468, 109]</text>
<text text-anchor="start" x="327" y="-232.3" font-family="Helvetica,sans-Serif" font-size="14.00">class = Survived</text>
</g>
<!-- 0&#45;&gt;1 -->
<g id="edge1" class="edge"><title>0&#45;&gt;1</title>
<path fill="none" stroke="black" d="M465.541,-344.391C454.51,-334.749 442.646,-324.38 431.3,-314.463"/>
<polygon fill="black" stroke="black" points="433.378,-311.63 423.545,-307.684 428.771,-316.9 433.378,-311.63"/>
<text text-anchor="middle" x="425.221" y="-328.928" font-family="Helvetica,sans-Serif" font-size="14.00">True</text>
</g>
<!-- 8 -->
<g id="node9" class="node"><title>8</title>
<path fill="#399de5" fill-opacity="0.650980" stroke="black" d="M692.25,-307.5C692.25,-307.5 599.75,-307.5 599.75,-307.5 593.75,-307.5 587.75,-301.5 587.75,-295.5 587.75,-295.5 587.75,-236.5 587.75,-236.5 587.75,-230.5 593.75,-224.5 599.75,-224.5 599.75,-224.5 692.25,-224.5 692.25,-224.5 698.25,-224.5 704.25,-230.5 704.25,-236.5 704.25,-236.5 704.25,-295.5 704.25,-295.5 704.25,-301.5 698.25,-307.5 692.25,-307.5"/>
<text text-anchor="start" x="608.5" y="-292.3" font-family="Helvetica,sans-Serif" font-size="14.00">Pclass ≤ 2.5</text>
<text text-anchor="start" x="606.5" y="-277.3" font-family="Helvetica,sans-Serif" font-size="14.00">gini = 0.3828</text>
<text text-anchor="start" x="601" y="-262.3" font-family="Helvetica,sans-Serif" font-size="14.00">samples = 314</text>
<text text-anchor="start" x="595.5" y="-247.3" font-family="Helvetica,sans-Serif" font-size="14.00">value = [81, 233]</text>
<text text-anchor="start" x="608.5" y="-232.3" font-family="Helvetica,sans-Serif" font-size="14.00">class = Died</text>
</g>
<!-- 0&#45;&gt;8 -->
<g id="edge8" class="edge"><title>0&#45;&gt;8</title>
<path fill="none" stroke="black" d="M558.115,-344.391C569.064,-334.749 580.84,-324.38 592.102,-314.463"/>
<polygon fill="black" stroke="black" points="594.608,-316.919 599.8,-307.684 589.982,-311.666 594.608,-316.919"/>
<text text-anchor="middle" x="598.216" y="-328.934" font-family="Helvetica,sans-Serif" font-size="14.00">False</text>
</g>
<!-- 2 -->
<g id="node3" class="node"><title>2</title>
<path fill="#399de5" fill-opacity="0.498039" stroke="black" d="M216.5,-187.5C216.5,-187.5 139.5,-187.5 139.5,-187.5 133.5,-187.5 127.5,-181.5 127.5,-175.5 127.5,-175.5 127.5,-116.5 127.5,-116.5 127.5,-110.5 133.5,-104.5 139.5,-104.5 139.5,-104.5 216.5,-104.5 216.5,-104.5 222.5,-104.5 228.5,-110.5 228.5,-116.5 228.5,-116.5 228.5,-175.5 228.5,-175.5 228.5,-181.5 222.5,-187.5 216.5,-187.5"/>
<text text-anchor="start" x="142.5" y="-172.3" font-family="Helvetica,sans-Serif" font-size="14.00">SibSp ≤ 2.5</text>
<text text-anchor="start" x="138.5" y="-157.3" font-family="Helvetica,sans-Serif" font-size="14.00">gini = 0.4444</text>
<text text-anchor="start" x="137" y="-142.3" font-family="Helvetica,sans-Serif" font-size="14.00">samples = 24</text>
<text text-anchor="start" x="135" y="-127.3" font-family="Helvetica,sans-Serif" font-size="14.00">value = [8, 16]</text>
<text text-anchor="start" x="140.5" y="-112.3" font-family="Helvetica,sans-Serif" font-size="14.00">class = Died</text>
</g>
<!-- 1&#45;&gt;2 -->
<g id="edge2" class="edge"><title>1&#45;&gt;2</title>
<path fill="none" stroke="black" d="M314.581,-227.988C289.912,-213.36 261.695,-196.628 237.337,-182.185"/>
<polygon fill="black" stroke="black" points="238.937,-179.065 228.551,-176.975 235.367,-185.086 238.937,-179.065"/>
</g>
<!-- 5 -->
<g id="node6" class="node"><title>5</title>
<path fill="#e58139" fill-opacity="0.796078" stroke="black" d="M423.25,-187.5C423.25,-187.5 330.75,-187.5 330.75,-187.5 324.75,-187.5 318.75,-181.5 318.75,-175.5 318.75,-175.5 318.75,-116.5 318.75,-116.5 318.75,-110.5 324.75,-104.5 330.75,-104.5 330.75,-104.5 423.25,-104.5 423.25,-104.5 429.25,-104.5 435.25,-110.5 435.25,-116.5 435.25,-116.5 435.25,-175.5 435.25,-175.5 435.25,-181.5 429.25,-187.5 423.25,-187.5"/>
<text text-anchor="start" x="339.5" y="-172.3" font-family="Helvetica,sans-Serif" font-size="14.00">Pclass ≤ 1.5</text>
<text text-anchor="start" x="337.5" y="-157.3" font-family="Helvetica,sans-Serif" font-size="14.00">gini = 0.2798</text>
<text text-anchor="start" x="332" y="-142.3" font-family="Helvetica,sans-Serif" font-size="14.00">samples = 553</text>
<text text-anchor="start" x="326.5" y="-127.3" font-family="Helvetica,sans-Serif" font-size="14.00">value = [460, 93]</text>
<text text-anchor="start" x="327" y="-112.3" font-family="Helvetica,sans-Serif" font-size="14.00">class = Survived</text>
</g>
<!-- 1&#45;&gt;5 -->
<g id="edge5" class="edge"><title>1&#45;&gt;5</title>
<path fill="none" stroke="black" d="M377,-224.391C377,-215.862 377,-206.763 377,-197.912"/>
<polygon fill="black" stroke="black" points="380.5,-197.684 377,-187.684 373.5,-197.684 380.5,-197.684"/>
</g>
<!-- 3 -->
<g id="node4" class="node"><title>3</title>
<path fill="#399de5" stroke="black" d="M89.5,-68C89.5,-68 12.5,-68 12.5,-68 6.5,-68 0.5,-62 0.5,-56 0.5,-56 0.5,-12 0.5,-12 0.5,-6 6.5,-0 12.5,-0 12.5,-0 89.5,-0 89.5,-0 95.5,-0 101.5,-6 101.5,-12 101.5,-12 101.5,-56 101.5,-56 101.5,-62 95.5,-68 89.5,-68"/>
<text text-anchor="start" x="23" y="-52.8" font-family="Helvetica,sans-Serif" font-size="14.00">gini = 0.0</text>
<text text-anchor="start" x="10" y="-37.8" font-family="Helvetica,sans-Serif" font-size="14.00">samples = 15</text>
<text text-anchor="start" x="8" y="-22.8" font-family="Helvetica,sans-Serif" font-size="14.00">value = [0, 15]</text>
<text text-anchor="start" x="13.5" y="-7.8" font-family="Helvetica,sans-Serif" font-size="14.00">class = Died</text>
</g>
<!-- 2&#45;&gt;3 -->
<g id="edge3" class="edge"><title>2&#45;&gt;3</title>
<path fill="none" stroke="black" d="M131.071,-104.353C120.04,-94.7985 108.292,-84.6232 97.29,-75.0937"/>
<polygon fill="black" stroke="black" points="99.2817,-72.1884 89.4313,-68.287 94.6987,-77.4796 99.2817,-72.1884"/>
</g>
<!-- 4 -->
<g id="node5" class="node"><title>4</title>
<path fill="#e58139" fill-opacity="0.874510" stroke="black" d="M223.5,-68C223.5,-68 132.5,-68 132.5,-68 126.5,-68 120.5,-62 120.5,-56 120.5,-56 120.5,-12 120.5,-12 120.5,-6 126.5,-0 132.5,-0 132.5,-0 223.5,-0 223.5,-0 229.5,-0 235.5,-6 235.5,-12 235.5,-12 235.5,-56 235.5,-56 235.5,-62 229.5,-68 223.5,-68"/>
<text text-anchor="start" x="138.5" y="-52.8" font-family="Helvetica,sans-Serif" font-size="14.00">gini = 0.1975</text>
<text text-anchor="start" x="140.5" y="-37.8" font-family="Helvetica,sans-Serif" font-size="14.00">samples = 9</text>
<text text-anchor="start" x="138.5" y="-22.8" font-family="Helvetica,sans-Serif" font-size="14.00">value = [8, 1]</text>
<text text-anchor="start" x="128" y="-7.8" font-family="Helvetica,sans-Serif" font-size="14.00">class = Survived</text>
</g>
<!-- 2&#45;&gt;4 -->
<g id="edge4" class="edge"><title>2&#45;&gt;4</title>
<path fill="none" stroke="black" d="M178,-104.353C178,-95.9116 178,-86.9857 178,-78.4487"/>
<polygon fill="black" stroke="black" points="181.5,-78.2869 178,-68.287 174.5,-78.287 181.5,-78.2869"/>
</g>
<!-- 6 -->
<g id="node7" class="node"><title>6</title>
<path fill="#e58139" fill-opacity="0.443137" stroke="black" d="M357.5,-68C357.5,-68 266.5,-68 266.5,-68 260.5,-68 254.5,-62 254.5,-56 254.5,-56 254.5,-12 254.5,-12 254.5,-6 260.5,-0 266.5,-0 266.5,-0 357.5,-0 357.5,-0 363.5,-0 369.5,-6 369.5,-12 369.5,-12 369.5,-56 369.5,-56 369.5,-62 363.5,-68 357.5,-68"/>
<text text-anchor="start" x="272.5" y="-52.8" font-family="Helvetica,sans-Serif" font-size="14.00">gini = 0.4599</text>
<text text-anchor="start" x="267" y="-37.8" font-family="Helvetica,sans-Serif" font-size="14.00">samples = 120</text>
<text text-anchor="start" x="265" y="-22.8" font-family="Helvetica,sans-Serif" font-size="14.00">value = [77, 43]</text>
<text text-anchor="start" x="262" y="-7.8" font-family="Helvetica,sans-Serif" font-size="14.00">class = Survived</text>
</g>
<!-- 5&#45;&gt;6 -->
<g id="edge6" class="edge"><title>5&#45;&gt;6</title>
<path fill="none" stroke="black" d="M352.981,-104.353C347.719,-95.4478 342.138,-86.0034 336.845,-77.0452"/>
<polygon fill="black" stroke="black" points="339.77,-75.1157 331.67,-68.287 333.744,-78.6768 339.77,-75.1157"/>
</g>
<!-- 7 -->
<g id="node8" class="node"><title>7</title>
<path fill="#e58139" fill-opacity="0.870588" stroke="black" d="M493.25,-68C493.25,-68 400.75,-68 400.75,-68 394.75,-68 388.75,-62 388.75,-56 388.75,-56 388.75,-12 388.75,-12 388.75,-6 394.75,-0 400.75,-0 400.75,-0 493.25,-0 493.25,-0 499.25,-0 505.25,-6 505.25,-12 505.25,-12 505.25,-56 505.25,-56 505.25,-62 499.25,-68 493.25,-68"/>
<text text-anchor="start" x="407.5" y="-52.8" font-family="Helvetica,sans-Serif" font-size="14.00">gini = 0.2043</text>
<text text-anchor="start" x="402" y="-37.8" font-family="Helvetica,sans-Serif" font-size="14.00">samples = 433</text>
<text text-anchor="start" x="396.5" y="-22.8" font-family="Helvetica,sans-Serif" font-size="14.00">value = [383, 50]</text>
<text text-anchor="start" x="397" y="-7.8" font-family="Helvetica,sans-Serif" font-size="14.00">class = Survived</text>
</g>
<!-- 5&#45;&gt;7 -->
<g id="edge7" class="edge"><title>5&#45;&gt;7</title>
<path fill="none" stroke="black" d="M402.867,-104.353C408.592,-95.3551 414.669,-85.8066 420.422,-76.7654"/>
<polygon fill="black" stroke="black" points="423.401,-78.6027 425.817,-68.287 417.496,-74.8445 423.401,-78.6027"/>
</g>
<!-- 9 -->
<g id="node10" class="node"><title>9</title>
<path fill="#399de5" fill-opacity="0.945098" stroke="black" d="M689,-187.5C689,-187.5 603,-187.5 603,-187.5 597,-187.5 591,-181.5 591,-175.5 591,-175.5 591,-116.5 591,-116.5 591,-110.5 597,-104.5 603,-104.5 603,-104.5 689,-104.5 689,-104.5 695,-104.5 701,-110.5 701,-116.5 701,-116.5 701,-175.5 701,-175.5 701,-181.5 695,-187.5 689,-187.5"/>
<text text-anchor="start" x="616.5" y="-172.3" font-family="Helvetica,sans-Serif" font-size="14.00">Age ≤ 2.5</text>
<text text-anchor="start" x="606.5" y="-157.3" font-family="Helvetica,sans-Serif" font-size="14.00">gini = 0.1003</text>
<text text-anchor="start" x="601" y="-142.3" font-family="Helvetica,sans-Serif" font-size="14.00">samples = 170</text>
<text text-anchor="start" x="599" y="-127.3" font-family="Helvetica,sans-Serif" font-size="14.00">value = [9, 161]</text>
<text text-anchor="start" x="608.5" y="-112.3" font-family="Helvetica,sans-Serif" font-size="14.00">class = Died</text>
</g>
<!-- 8&#45;&gt;9 -->
<g id="edge9" class="edge"><title>8&#45;&gt;9</title>
<path fill="none" stroke="black" d="M646,-224.391C646,-215.862 646,-206.763 646,-197.912"/>
<polygon fill="black" stroke="black" points="649.5,-197.684 646,-187.684 642.5,-197.684 649.5,-197.684"/>
</g>
<!-- 12 -->
<g id="node13" class="node"><title>12</title>
<path fill="none" stroke="black" d="M886.5,-187.5C886.5,-187.5 795.5,-187.5 795.5,-187.5 789.5,-187.5 783.5,-181.5 783.5,-175.5 783.5,-175.5 783.5,-116.5 783.5,-116.5 783.5,-110.5 789.5,-104.5 795.5,-104.5 795.5,-104.5 886.5,-104.5 886.5,-104.5 892.5,-104.5 898.5,-110.5 898.5,-116.5 898.5,-116.5 898.5,-175.5 898.5,-175.5 898.5,-181.5 892.5,-187.5 886.5,-187.5"/>
<text text-anchor="start" x="802" y="-172.3" font-family="Helvetica,sans-Serif" font-size="14.00">Fare ≤ 23.35</text>
<text text-anchor="start" x="813" y="-157.3" font-family="Helvetica,sans-Serif" font-size="14.00">gini = 0.5</text>
<text text-anchor="start" x="796" y="-142.3" font-family="Helvetica,sans-Serif" font-size="14.00">samples = 144</text>
<text text-anchor="start" x="794" y="-127.3" font-family="Helvetica,sans-Serif" font-size="14.00">value = [72, 72]</text>
<text text-anchor="start" x="791" y="-112.3" font-family="Helvetica,sans-Serif" font-size="14.00">class = Survived</text>
</g>
<!-- 8&#45;&gt;12 -->
<g id="edge12" class="edge"><title>8&#45;&gt;12</title>
<path fill="none" stroke="black" d="M704.506,-229.596C726.59,-216.233 751.869,-200.936 774.622,-187.167"/>
<polygon fill="black" stroke="black" points="776.463,-190.144 783.207,-181.972 772.839,-184.155 776.463,-190.144"/>
</g>
<!-- 10 -->
<g id="node11" class="node"><title>10</title>
<path fill="none" stroke="black" d="M627.5,-68C627.5,-68 536.5,-68 536.5,-68 530.5,-68 524.5,-62 524.5,-56 524.5,-56 524.5,-12 524.5,-12 524.5,-6 530.5,-0 536.5,-0 536.5,-0 627.5,-0 627.5,-0 633.5,-0 639.5,-6 639.5,-12 639.5,-12 639.5,-56 639.5,-56 639.5,-62 633.5,-68 627.5,-68"/>
<text text-anchor="start" x="554" y="-52.8" font-family="Helvetica,sans-Serif" font-size="14.00">gini = 0.5</text>
<text text-anchor="start" x="544.5" y="-37.8" font-family="Helvetica,sans-Serif" font-size="14.00">samples = 2</text>
<text text-anchor="start" x="542.5" y="-22.8" font-family="Helvetica,sans-Serif" font-size="14.00">value = [1, 1]</text>
<text text-anchor="start" x="532" y="-7.8" font-family="Helvetica,sans-Serif" font-size="14.00">class = Survived</text>
</g>
<!-- 9&#45;&gt;10 -->
<g id="edge10" class="edge"><title>9&#45;&gt;10</title>
<path fill="none" stroke="black" d="M622.351,-104.353C617.17,-95.4478 611.675,-86.0034 606.463,-77.0452"/>
<polygon fill="black" stroke="black" points="609.421,-75.1703 601.367,-68.287 603.371,-78.6906 609.421,-75.1703"/>
</g>
<!-- 11 -->
<g id="node12" class="node"><title>11</title>
<path fill="#399de5" fill-opacity="0.949020" stroke="black" d="M756,-68C756,-68 670,-68 670,-68 664,-68 658,-62 658,-56 658,-56 658,-12 658,-12 658,-6 664,-0 670,-0 670,-0 756,-0 756,-0 762,-0 768,-6 768,-12 768,-12 768,-56 768,-56 768,-62 762,-68 756,-68"/>
<text text-anchor="start" x="673.5" y="-52.8" font-family="Helvetica,sans-Serif" font-size="14.00">gini = 0.0907</text>
<text text-anchor="start" x="668" y="-37.8" font-family="Helvetica,sans-Serif" font-size="14.00">samples = 168</text>
<text text-anchor="start" x="666" y="-22.8" font-family="Helvetica,sans-Serif" font-size="14.00">value = [8, 160]</text>
<text text-anchor="start" x="675.5" y="-7.8" font-family="Helvetica,sans-Serif" font-size="14.00">class = Died</text>
</g>
<!-- 9&#45;&gt;11 -->
<g id="edge11" class="edge"><title>9&#45;&gt;11</title>
<path fill="none" stroke="black" d="M670.758,-104.353C676.182,-95.4478 681.934,-86.0034 687.391,-77.0452"/>
<polygon fill="black" stroke="black" points="690.512,-78.6482 692.725,-68.287 684.534,-75.0068 690.512,-78.6482"/>
</g>
<!-- 13 -->
<g id="node14" class="node"><title>13</title>
<path fill="#399de5" fill-opacity="0.305882" stroke="black" d="M884,-68C884,-68 798,-68 798,-68 792,-68 786,-62 786,-56 786,-56 786,-12 786,-12 786,-6 792,-0 798,-0 798,-0 884,-0 884,-0 890,-0 896,-6 896,-12 896,-12 896,-56 896,-56 896,-62 890,-68 884,-68"/>
<text text-anchor="start" x="801.5" y="-52.8" font-family="Helvetica,sans-Serif" font-size="14.00">gini = 0.4839</text>
<text text-anchor="start" x="796" y="-37.8" font-family="Helvetica,sans-Serif" font-size="14.00">samples = 117</text>
<text text-anchor="start" x="794" y="-22.8" font-family="Helvetica,sans-Serif" font-size="14.00">value = [48, 69]</text>
<text text-anchor="start" x="803.5" y="-7.8" font-family="Helvetica,sans-Serif" font-size="14.00">class = Died</text>
</g>
<!-- 12&#45;&gt;13 -->
<g id="edge13" class="edge"><title>12&#45;&gt;13</title>
<path fill="none" stroke="black" d="M841,-104.353C841,-95.9116 841,-86.9857 841,-78.4487"/>
<polygon fill="black" stroke="black" points="844.5,-78.2869 841,-68.287 837.5,-78.287 844.5,-78.2869"/>
</g>
<!-- 14 -->
<g id="node15" class="node"><title>14</title>
<path fill="#e58139" fill-opacity="0.874510" stroke="black" d="M1017.5,-68C1017.5,-68 926.5,-68 926.5,-68 920.5,-68 914.5,-62 914.5,-56 914.5,-56 914.5,-12 914.5,-12 914.5,-6 920.5,-0 926.5,-0 926.5,-0 1017.5,-0 1017.5,-0 1023.5,-0 1029.5,-6 1029.5,-12 1029.5,-12 1029.5,-56 1029.5,-56 1029.5,-62 1023.5,-68 1017.5,-68"/>
<text text-anchor="start" x="932.5" y="-52.8" font-family="Helvetica,sans-Serif" font-size="14.00">gini = 0.1975</text>
<text text-anchor="start" x="931" y="-37.8" font-family="Helvetica,sans-Serif" font-size="14.00">samples = 27</text>
<text text-anchor="start" x="929" y="-22.8" font-family="Helvetica,sans-Serif" font-size="14.00">value = [24, 3]</text>
<text text-anchor="start" x="922" y="-7.8" font-family="Helvetica,sans-Serif" font-size="14.00">class = Survived</text>
</g>
<!-- 12&#45;&gt;14 -->
<g id="edge14" class="edge"><title>12&#45;&gt;14</title>
<path fill="none" stroke="black" d="M889.407,-104.353C900.896,-94.7058 913.139,-84.4256 924.582,-74.8163"/>
<polygon fill="black" stroke="black" points="926.951,-77.3979 932.358,-68.287 922.449,-72.0372 926.951,-77.3979"/>
</g>
</g>
</svg>
